<svg width="326" height="79" viewBox="0 0 326 79" fill="none" xmlns="http://www.w3.org/2000/svg">
<path d="M259.439 19.253C259.267 19.3014 259.153 25.7177 259.153 37.2184C259.153 57.1693 259.038 56.0797 261.129 57.7262C262.847 59.0578 264.25 59.2757 271.038 59.2031L277.052 59.1305L277.137 54.4817L277.195 49.833L273.701 49.7604L270.178 49.6877V42.1819V34.6762L271.839 34.6035C273.472 34.5309 273.5 34.5309 274.045 33.514C274.331 32.9571 274.846 31.7949 275.161 30.9233C275.935 28.841 276.336 27.8483 276.851 26.7588C277.08 26.2745 277.166 25.7661 277.08 25.6208C276.937 25.4513 275.706 25.3545 273.787 25.3545C271.582 25.3545 270.579 25.2576 270.379 25.0397C270.207 24.8702 270.007 23.5386 269.978 22.0616L269.892 19.4225L264.794 19.3014C262.017 19.2288 259.582 19.2046 259.439 19.253Z" fill="white"/>
<path d="M52.8155 25.6692C51.2118 26.0566 50.1522 26.7346 49.2644 27.8725L48.5198 28.8652V42.1819C48.5198 56.9272 48.4339 56.1282 50.4386 57.7019C52.386 59.2273 52.7296 59.2515 70.4279 59.2515C88.4413 59.2515 88.4126 59.2515 90.4459 57.5325C92.422 55.8618 92.4792 55.4018 92.4792 42.1093C92.4792 31.0201 92.4506 30.3664 91.9065 29.0347C91.5915 28.2841 90.9042 27.2914 90.3887 26.8556C88.6417 25.4029 88.1835 25.3545 70.1416 25.3787C58.8582 25.4029 53.6174 25.4755 52.8155 25.6692ZM81.1672 42.1819V49.6877H70.2847H59.4023L59.3164 42.4241C59.2877 38.4291 59.3164 35.0151 59.4023 34.8456C59.4882 34.6035 61.8079 34.5551 70.342 34.6035L81.1672 34.6762V42.1819Z" fill="white"/>
<path d="M102.073 25.4756C101.93 25.524 101.243 25.6935 100.612 25.8387C99.3524 26.1051 97.9205 27.1462 97.1186 28.381C96.6891 29.0347 96.6318 30.6327 96.5459 43.6347C96.4886 51.6247 96.5459 58.4041 96.6318 58.7189C96.775 59.2515 96.8036 59.2515 102.016 59.2031L107.228 59.1305L107.371 46.9033L107.514 34.6762L114.674 34.6035C118.74 34.5793 121.919 34.4583 122.091 34.313C122.349 34.0951 123.809 30.778 124.239 29.3495C124.382 28.9379 124.697 28.0905 124.955 27.461C125.871 25.1366 126.988 25.3545 113.901 25.3787C107.543 25.3787 102.245 25.4271 102.073 25.4756Z" fill="white"/>
<path d="M134.434 25.6692C131.971 26.2745 130.797 27.2915 130.081 29.4706C129.823 30.2938 129.709 34.0709 129.709 44.7727V59.0094L130.367 59.1305C130.711 59.2031 133.117 59.2273 135.723 59.2031L140.448 59.1305L140.591 46.9033L140.734 34.6762L148.037 34.5551L155.311 34.4341L155.655 33.8287C156.027 33.1266 156.571 31.8433 156.915 30.8022C157.23 29.8579 157.745 28.5989 158.232 27.582C158.461 27.1462 158.633 26.4682 158.633 26.0808V25.3545L147.121 25.3787C139.331 25.4029 135.207 25.4998 134.434 25.6692Z" fill="white"/>
<path d="M166.996 25.7177C165.22 26.2019 164.218 26.9041 163.444 28.2115L162.786 29.3495V42.303C162.786 55.1112 162.786 55.2565 163.416 56.225C164.275 57.5809 165.163 58.2104 167.024 58.7673C168.542 59.2273 169.401 59.2515 181.945 59.2515H195.261L195.834 58.622C196.178 58.2588 196.435 57.823 196.435 57.6293C196.435 57.2419 198.039 52.9321 198.612 51.7942C198.841 51.3584 199.013 50.7288 199.013 50.4141V49.8088L186.355 49.7604L173.668 49.6877L173.726 42.7872C173.783 38.9859 173.869 35.6447 173.955 35.3783C174.041 35.0878 174.384 34.7972 174.728 34.7004C175.673 34.5067 195.519 34.5309 195.662 34.7246C195.748 34.8456 195.72 35.4994 195.662 36.1773L195.49 37.4606L186.584 37.509L177.678 37.5816L177.534 41.6251C177.448 43.8526 177.448 45.9348 177.534 46.2254L177.706 46.7823H189.276C202.306 46.7823 202.879 46.7338 204.712 45.1842C206.545 43.6105 206.745 42.7388 206.745 36.0078C206.745 29.2526 206.545 28.4052 204.683 26.8072C203.71 26.0082 203.337 25.8629 201.447 25.6208C198.154 25.2092 168.628 25.306 166.996 25.7177Z" fill="white"/>
<path d="M217.484 25.524C213.418 25.7903 213.475 25.7903 212.559 27.0009C212.072 27.6304 211.499 28.4052 211.299 28.7442C210.783 29.5432 210.525 57.9441 211.041 58.7431C211.327 59.2273 211.585 59.2515 216.339 59.2515C219.203 59.2515 221.379 59.1547 221.494 59.0094C221.58 58.8883 221.637 53.3922 221.637 46.8065V34.7972L222.267 34.6762C222.639 34.6035 227.622 34.5793 233.379 34.6035L243.831 34.6762L243.917 46.7823C243.975 56.0071 244.061 58.9126 244.347 59.0578C244.519 59.1547 246.953 59.2273 249.702 59.1789L254.714 59.1305L254.8 44.3368C254.857 29.8822 254.857 29.519 254.284 28.4294C253.941 27.7999 253.253 27.0251 252.709 26.6619C250.705 25.3787 250.304 25.3545 233.837 25.4029C225.474 25.4271 218.114 25.4755 217.484 25.524Z" fill="white"/>
<path d="M286.416 25.7177C283.839 26.4198 282.522 27.7515 282.206 30.0032C281.891 32.1097 281.863 51.77 282.149 53.9975C282.522 56.8545 283.61 58.0409 286.531 58.8641C287.848 59.2273 289.652 59.2515 304.573 59.1789C322.758 59.1063 322.214 59.1547 324.19 57.6051C326.023 56.2008 326.023 56.1766 325.994 40.2934C325.994 29.2769 325.908 25.984 325.622 25.8629C324.963 25.4998 317.918 25.3545 302.826 25.3787C290.998 25.4029 287.39 25.4755 286.416 25.7177ZM314.997 42.182V49.8088L304.057 49.7604L293.089 49.6877L293.003 42.4241C292.974 38.4291 293.003 35.0394 293.089 34.8699C293.175 34.6278 295.609 34.5551 304.115 34.5551H314.997V42.182Z" fill="white"/>
<path fill-rule="evenodd" clip-rule="evenodd" d="M26.2142 1.0544C25.1832 4.38162 16.2091 14.7616 11.7806 17.7608C6.67261 21.2286 4.37636 22.5876 2.45501 23.2203C1.23659 23.642 0.205619 24.2278 0.158757 24.5324C0.136033 24.7474 0.113179 24.9451 0.0921688 25.1268L0.0921665 25.1268C-0.0116333 26.0245 -0.0704107 26.5329 0.153987 26.8196C0.446939 27.1939 1.22252 27.1905 3.01063 27.1827H3.01116H3.01174C3.29257 27.1815 3.59836 27.1801 3.93117 27.1801H7.96133L7.82074 44.1677C7.65672 66.357 9.57807 69.1922 12.7647 72.6365C18.974 79.348 36.8519 80.814 43.7875 74.0658C47.1382 70.7855 49.9968 61.8582 47.6771 61.8582C46.9039 61.8582 46.693 62.28 46.4587 64.295C45.3106 74.0893 35.4929 77.8617 31.5799 69.9888C30.4552 67.716 30.4552 67.716 30.2209 47.4246L29.9874 27.2049L32.0902 27.1658L37.1331 27.2738L43.7172 27.4144L44.467 25.3056C44.8888 24.1341 45.2168 23.0797 45.2168 22.9625C45.2168 22.8219 41.8428 22.7985 37.7189 22.8688L30.2209 23.0328V11.5047V-5.34293e-08H28.3698C26.8703 -5.34293e-08 26.4719 0.187447 26.2142 1.0544ZM32.7817 24.6215L32.7792 24.62L32.7983 24.6027L32.7817 24.6215Z" fill="#E35C1E"/>
</svg>
