<svg width="49" height="79" viewBox="0 0 49 79" fill="none" xmlns="http://www.w3.org/2000/svg">
<path fill-rule="evenodd" clip-rule="evenodd" d="M26.2142 1.0544C25.1832 4.38162 16.2091 14.7616 11.7806 17.7608C6.67261 21.2286 4.37636 22.5876 2.45501 23.2203C1.23659 23.642 0.205619 24.2278 0.158757 24.5324C0.136033 24.7474 0.113179 24.9451 0.0921688 25.1268L0.0921665 25.1268C-0.0116333 26.0245 -0.0704107 26.5329 0.153987 26.8196C0.446939 27.1939 1.22252 27.1905 3.01063 27.1827H3.01116H3.01174C3.29257 27.1815 3.59836 27.1801 3.93117 27.1801H7.96133L7.82074 44.1677C7.65672 66.357 9.57807 69.1922 12.7647 72.6365C18.974 79.348 36.8519 80.814 43.7875 74.0658C47.1382 70.7855 49.9968 61.8582 47.6771 61.8582C46.9039 61.8582 46.693 62.28 46.4587 64.295C45.3106 74.0893 35.4929 77.8617 31.5799 69.9888C30.4552 67.716 30.4552 67.716 30.2209 47.4246L29.9874 27.2049L32.0902 27.1658L37.1331 27.2738L43.7172 27.4144L44.467 25.3056C44.8888 24.1341 45.2168 23.0797 45.2168 22.9625C45.2168 22.8219 41.8428 22.7985 37.7189 22.8688L30.2209 23.0328V11.5047V0H28.3698C26.8703 0 26.4719 0.187447 26.2142 1.0544ZM32.7817 24.6215L32.7792 24.62L32.7983 24.6027L32.7817 24.6215Z" fill="#E35C1E"/>
</svg>
